<?xml version="1.0" encoding="utf-8"?>
<!-- Generator: Adobe Illustrator 23.0.3, SVG Export Plug-In . SVG Version: 6.00 Build 0)  -->
<svg version="1.1" baseProfile="basic" id="Layer_1"
	 xmlns="http://www.w3.org/2000/svg" xmlns:xlink="http://www.w3.org/1999/xlink" x="0px" y="0px" viewBox="0 0 915.2 170.7"
	 xml:space="preserve">
<g>
	<path d="M635.8,164.5c-43,1.8-81.6-36.8-80.4-81.8c1.1-41.5,35.6-79.1,81.4-78.3c21.3,0.3,39.7,7.9,54.7,22.6
		c17,16.7,25.4,37.4,24.5,61.5C714.5,129.1,678.8,166,635.8,164.5z M669.5,83.1c0-0.1,0-0.2,0-0.3c-8.4,0.9-16.8,1.7-25.3,2.6
		c-1.3,0.1-1.9,0.7-1.6,2c1,4.8,1.7,9.6,3,14.4c1.7,6.6,5.5,11.9,11.8,15c2.3,1.1,4.6,2.2,7,2.7c7.4,1.5,14.8,2.9,22.2,4.2
		c7.5,1.3,7.5,1.2,10.9-5.7c0-0.1,0.1-0.1,0.1-0.2c0-0.7,0.2-1.6-0.2-2.1c-5.2-6.7-8.5-14.3-11.5-22c-2.9-7.6-7.6-10.6-15.7-10.6
		C670.1,83.1,669.8,83.1,669.5,83.1z M602.3,132.9c-0.1,0-0.1,0-0.2,0c-0.1,1.3-0.2,2.7-0.3,4c-0.1,1.3-0.2,2.7-0.3,4
		c-0.3,5.3-0.4,5.4,4.6,7.5c7.3,3.1,5.7,4.2,10.7-3.2c4.4-6.5,8.4-13.2,12.4-20c1.9-3.2,3.6-6.7,4.9-10.2c3.3-9,2-17.5-3.1-25.4
		c-0.6-0.9-1.1-1.6-2.2-0.6c-5.6,4.8-11.5,9.4-17,14.4c-6.3,5.6-9.7,12.6-9.4,21.1C602.4,127.3,602.3,130.1,602.3,132.9z
		 M620.9,82.3c-1.1-0.5-1.6-0.8-2.1-1c-3.6-1.6-7.1-3.2-10.7-4.9c-4.3-2.1-8.7-3.4-13.4-3.8c-9.7-0.8-18.7,1.9-27.6,5.2
		c-0.6,0.2-1.3,1.3-1.4,2c-0.2,2.4-0.2,4.8-0.1,7.1c0,0.8,0.6,1.8,1.2,2.2c7.4,4.3,14.8,8.5,23.5,9.6c5.4,0.7,10.8,0.8,15.2-2.8
		C610.7,91.7,615.5,87.1,620.9,82.3z M641.6,70.2c4.6-3,8.9-5.4,12.8-8.4c10.6-8.2,17.6-19.4,24.4-30.7c0.6-1.1,0.5-1.8-0.5-2.4
		c-3.3-2.1-6.6-4.2-10-6.2c-0.5-0.3-1.7-0.2-2.2,0.3c-5.2,4.7-10.6,9.4-15.5,14.5c-5.2,5.3-8.8,11.6-9.9,19.1
		C640.1,60.6,640.2,65.1,641.6,70.2z M611.2,65.1c0.1-0.8,0.2-1,0.2-1.2c-3.5-9.5-6.8-19-10.6-28.3c-1-2.5-3.3-4.5-5-6.6
		c-0.8-1-1.9-1-2.9,0c-4.4,4.5-8.8,9-13.2,13.4c-1.1,1.1-0.9,2,0.3,2.9c8,6.1,16.1,12.1,25,17C606.8,63.3,608.9,64.1,611.2,65.1z
		 M644.3,149.2c-0.2,4.4,0.2,5.2,2.1,5c6.5-0.9,12.7-2.9,18.7-5.6c1.1-0.5,1.6-1.2,1.4-2.5c-0.6-5.1-1.7-10-4-14.5
		c-2.9-5.6-7-9.9-13.1-12c-1.2-0.4-1.9-0.4-2,1.1C646.3,130.6,645.3,140.5,644.3,149.2z M660.2,72.7c0.4,0.3,0.5,0.4,0.6,0.4
		c14.2,0,28.4,0,42.6,0c1.2,0,1.6-0.6,1.3-1.7c-0.7-2.6-1.3-5.3-2.1-7.9c-0.2-0.7-1-1.4-1.7-1.6c-7.9-1.9-15.9-3.2-24.1-1.6
		C669.6,61.9,664.2,66.3,660.2,72.7z M618.3,51.2c0.4-0.2,0.6-0.2,0.6-0.3c0.8-1.3,1.5-2.5,2.2-3.8c4.5-8.7,7.8-17.6,6.7-27.7
		c-0.5-4.8-0.5-4.9-5.3-3.8c-1.1,0.2-2.6,1-2.9,1.8c-2,5.1-3.8,10.2-5.4,15.4C612,39.7,614.6,45.6,618.3,51.2z M636.8,14.4
		c-0.4,0-0.8,0-1.3,0c-2.5,0-2.5,0-2.3,2.6c0.6,5.8,0.3,11.5-1.3,17.1c-2.2,7.4-4.9,14.6-7.2,21.9c-0.6,1.9-0.8,4-0.6,5.9
		c0.2,2.2,0.9,4.4,1.4,6.5c0.1,0.4,0.6,1.1,1,1.1c0.5,0,1.2-0.3,1.6-0.7c0.3-0.4,0.4-1,0.5-1.6c3.7-16.4,7.5-32.7,11.2-49.1
		C640.7,14.4,640.7,14.4,636.8,14.4z M637.1,125.1c-0.2-0.1-0.4-0.2-0.6-0.2c-6,9.2-12,18.4-18.1,27.7c0.7,0.3,1,0.6,1.4,0.6
		c4.3,0.6,8.6,1.1,12.9,1.7c1.8,0.2,2.3-0.6,2.4-2.2c0.3-5.1,0.7-10.2,1.1-15.3C636.5,133.3,636.8,129.2,637.1,125.1z M699.4,55.9
		c0.2-0.3,0.4-0.5,0.6-0.8c-2.9-4.5-5.7-9.1-8.7-13.5c-1-1.5-2.6-2.7-3.9-4c-1.7,1.6-3.5,3.1-5.1,4.8c-0.7,0.7-1.1,1.8-1.4,2.8
		c-0.9,2.3-1.6,4.8-2.6,7.1c-0.7,1.8-0.1,2.2,1.6,2.3c5.9,0.4,11.9,0.9,17.8,1.3C698.2,56,698.8,55.9,699.4,55.9z M688,81.9
		c0.1,0.7,0.1,1.1,0.2,1.5c1.5,3.5,3,6.9,4.6,10.4c1.9,4.2,5.3,6.1,9.9,6.2c1.3,0,2-0.4,2.1-1.7c0.4-4.1,0.8-8.2,1.3-12.3
		c0.2-1.5-0.6-2-1.9-2.1c-2.2-0.2-4.3-0.5-6.5-0.8C694.5,82.8,691.3,82.3,688,81.9z M671.4,145.2c6.3-3.7,11.5-8,16.2-13.1
		c-0.6-0.5-0.9-0.7-1.3-0.9c-5.5-2.6-11.4-3.5-17.5-3.9c-1.4-0.1-1.4,0.7-1.1,1.8c1,4.5,1.9,9,2.9,13.5
		C670.8,143.3,671.1,144.1,671.4,145.2z M577.7,124.6c4.8-5.8,9.1-11,13.4-16.3c0.2-0.3,0.2-1.1,0-1.4c-2.1-2.3-6-2.8-8.6-0.9
		c-3.2,2.3-6.3,4.8-9.4,7.4c-0.4,0.3-0.9,1.3-0.7,1.7C574,118.1,575.8,121.1,577.7,124.6z M590.2,67.1c-0.4-0.6-0.5-1-0.8-1.2
		c-4.8-4-10.2-5.7-16.4-4c-4.4,1.2-6.4,4.3-5.8,9.3C574.8,69.9,582.4,68.5,590.2,67.1z M597.6,125.2c0-1.1,0.2-2.3-0.1-3.3
		c-0.2-0.8-1.1-1.6-1.8-2c-0.4-0.2-1.5,0.2-1.8,0.7c-2.9,3.5-5.7,7.1-8.6,10.6c-0.8,0.9-0.9,1.7,0.1,2.5c1.4,1.3,2.7,2.6,4.2,3.8
		c0.4,0.3,1.4,0.3,1.7,0.1C594.7,134.1,599,131.1,597.6,125.2z M658.5,18.1c-2.1-0.6-3.7-1.1-5.2-1.7c-1.6-0.6-2.3-0.1-2.9,1.5
		c-1.3,3.7-2.8,7.4-4.3,11.1c-0.7,1.8,0.9,2,1.7,2.5c0.4,0.3,1.6-0.1,1.9-0.5c1.9-2.7,3.7-5.4,5.5-8.2
		C656.2,21.5,657.2,20,658.5,18.1z M579.6,100.7c-4.7-1.9-8.7-3.5-12.8-5.2c-0.2,0.2-0.4,0.4-0.6,0.6c1,3.9,2,7.8,3.2,12.2
		C572.9,105.7,576,103.4,579.6,100.7z M612.7,18.9c-0.2-0.2-0.3-0.4-0.5-0.6c-1.2,0.7-3.3,1.1-3.5,2c-0.4,1.4,0.5,3.1,0.8,4.6
		c0.2,0,0.5,0,0.7,0C611.1,22.9,611.9,20.9,612.7,18.9z M698,106.4c-0.1,0.3-0.2,0.5-0.3,0.8c1.1,1,2.3,1.9,3.4,2.9
		c0.2-0.1,0.4-0.2,0.6-0.4c0.1-1,0.2-2,0.3-2.9C700.6,106.7,699.3,106.5,698,106.4z M571.6,56.1c0.2,0.2,0.3,0.3,0.5,0.5
		c1.2-0.6,2.4-1.3,4-2.1c-1.1-0.8-1.8-1.3-2.8-2C572.7,53.8,572.1,54.9,571.6,56.1z"/>
	<path d="M43.9,142.9C31,105.8,18.2,68.6,5.2,31c4.5,0,8.7,0,12.9,0c5.3,0,5.3,0,6.9,4.9c6.1,18.2,12.2,36.5,18.1,54.7
		c1.5,4.6,2.7,9.4,4,14.1c0.1-0.1,0.3-0.1,0.4-0.3c3.9-13.3,10-25.8,15.3-38.6c4.7-11.4,9.6-22.8,14.5-34.2c0.3-0.7,1.2-1.7,1.8-1.7
		c0.6,0,1.5,1,1.8,1.7c8.3,19.5,16.7,38.9,24.9,58.5c1.8,4.4,3,9,4.6,13.5c0.2,0.5,0.3,0.9,0.7,1.8c0.9-3.3,1.5-6.2,2.4-9.1
		c3.4-10.8,6.9-21.6,10.5-32.3c3.4-10.4,6.9-20.8,10.3-31.3c0.5-1.4,1-2,2.6-2c4.9,0.1,9.8,0,15,0c-1.5,4.4-2.9,8.6-4.3,12.7
		c-11,32.1-22,64.2-33,96.2c-0.2,0.6-0.3,1.3-0.6,1.8c-0.4,0.5-1,1.4-1.4,1.3c-0.6,0-1.5-0.6-1.7-1.2c-2.1-4.8-4.1-9.7-6.1-14.5
		C97.4,109.9,90.1,92.5,83,75c-1.3-3.1-2.1-6.4-3.2-9.5c-0.1-0.4-0.3-0.7-0.6-1.5c-0.7,2-1.2,3.6-1.9,5.2c-6.7,16-13.3,32-20,48
		c-3.4,8.1-7,16.2-10.4,24.3C46.3,143,45.5,143.5,43.9,142.9z"/>
	<path d="M419.8,86.6c0,32.3-24.7,56.9-57.1,56.9c-32.6,0-57.3-24.7-57.3-57.3c0-32.1,24.9-56.6,57.6-56.6
		C395.3,29.6,419.8,54.2,419.8,86.6z M360.8,127.9c11,0,19.5-2.6,26.7-8.6c9.8-8.1,14.3-18.9,14.7-31.5
		c0.8-24.4-16.8-43.8-41.3-42.7c-10.5,0.5-19.5,4.3-26.6,12c-8.8,9.6-11.9,21.1-10.8,33.9C325.3,112.6,341.1,127.4,360.8,127.9z"/>
	<path d="M224,143.5c-31.9-0.5-56.5-25.6-56.1-57.2c0.4-33,25.4-57.2,58.5-56.7c32.1,0.5,56.6,25.7,56,57.7
		C281.8,119.9,256.7,144,224,143.5z M224.6,127.9c12.4,0.1,23.4-4.4,31.2-14.7c9.7-12.7,11.4-27.1,6.2-42
		c-10.4-29.7-46.4-33.1-64.5-15c-13.8,13.9-16,38.2-4.7,54.8C200.3,122,211,127.3,224.6,127.9z"/>
	<path d="M444.9,141.7c0-36.8,0-73.6,0-110.5c0.3-0.1,0.6-0.2,0.8-0.2c12.3,0.1,24.7-0.4,36.9,0.5c18.9,1.4,34.7,9.2,44.6,26.2
		c6.7,11.4,8.3,23.9,6.8,36.9c-1.6,13.5-7.2,25.1-17.7,33.9c-9,7.6-19.7,12.1-31.4,12.8c-13.1,0.8-26.3,0.5-39.5,0.6
		C445.4,141.9,445.2,141.8,444.9,141.7z M462.2,46.3c0,27,0,53.7,0,80.5c8.4-0.1,16.6,0.5,24.6-1.3c13.3-3,23.1-10.2,27.4-23.5
		c3-9.4,3.1-19,0.7-28.6c-3.2-12.3-11-20.3-22.9-24.4c-6-2.1-12.2-2.6-18.4-2.7C469.8,46.2,466,46.3,462.2,46.3z"/>
	<path d="M810,80.5c0,6,0,11.7,0,17.4c-1.4,0-2.6,0-4,0c0-22.7,0-45.3,0-67.9c0.2-0.1,0.3-0.3,0.4-0.3c7.1,0.2,14.3-0.2,21.3,0.8
		c11.2,1.6,18.3,9.9,19.1,21.3c0.4,6.3-0.1,12.4-3.6,17.8c-5.1,7.8-12.8,10.5-21.6,10.8C817.9,80.6,814.1,80.5,810,80.5z
		 M810.3,33.1c0,14.9,0,29.3,0,43.5c4.9,0,9.7,0.4,14.4-0.1c9.6-1.1,15.5-6.3,17.3-14.8c0.6-3,0.8-6.3,0.6-9.4
		c-0.6-9.8-6-16.3-15.7-18.1C821.5,33.3,815.9,33.5,810.3,33.1z"/>
	<path d="M869.9,29.3c7.7,0.5,15.3,0.2,22.7,1.6c11,2,17.4,10.2,18.1,21.5c0.4,7.1-0.5,13.9-5.2,19.6c-5.2,6.1-12.2,8.4-20,8.6
		c-3.8,0.1-7.5,0-11.5,0c0,6,0,11.7,0,17.5c-1.5,0-2.7,0-4,0C869.9,75.2,869.9,52.6,869.9,29.3z M874,76.9
		c6.3-0.1,12.4,0.6,18.3-1.1c7.3-2.1,12.2-6.8,13.6-14.4c0.5-2.8,0.7-5.7,0.5-8.5c-0.6-10.8-6.9-17.7-17.6-19
		c-4.8-0.6-9.6-0.3-14.4-0.3c-0.1,0-0.2,0.2-0.4,0.3C874,48,874,62.3,874,76.9z"/>
	<path d="M737.9,29.8c1.3,0,2.6,0,4.2,0c0,0.8,0,1.6,0,2.4c0,14.6,0,29.3,0,43.9c0,6.9,2.3,12.8,8.5,16.5
		c12.8,7.7,28.5-0.4,28.9-15.3c0.5-14.9,0.2-29.8,0.2-44.7c0-0.9,0-1.8,0-2.8c1.4,0,2.6,0,4.1,0c0,0.7,0.1,1.5,0.1,2.2
		c0,14.4,0,28.8,0,43.3c0,8.6-2.8,16-10.7,20.5c-9.9,5.7-24.4,3.3-30.8-5.1c-3.6-4.7-4.7-10.2-4.7-16c0-14.5,0-29,0-43.5
		C737.8,30.9,737.9,30.4,737.9,29.8z"/>
</g>
</svg>
